%TF.GenerationSoftware,KiCad,Pcbnew,8.0.3*%
%TF.CreationDate,2024-07-15T18:44:32+02:00*%
%TF.ProjectId,DCDC,44434443-2e6b-4696-9361-645f70636258,rev?*%
%TF.SameCoordinates,Original*%
%TF.FileFunction,Drillmap*%
%TF.FilePolarity,Positive*%
%FSLAX45Y45*%
G04 Gerber Fmt 4.5, Leading zero omitted, Abs format (unit mm)*
G04 Created by KiCad (PCBNEW 8.0.3) date 2024-07-15 18:44:32*
%MOMM*%
%LPD*%
G01*
G04 APERTURE LIST*
%ADD10C,0.050000*%
%ADD11C,0.200000*%
G04 APERTURE END LIST*
D10*
X8763000Y-10390500D02*
X12763000Y-10390500D01*
X12763000Y-12890500D01*
X8763000Y-12890500D01*
X8763000Y-10390500D01*
D11*
X9021277Y-13204484D02*
X9021277Y-13004484D01*
X9021277Y-13004484D02*
X9068896Y-13004484D01*
X9068896Y-13004484D02*
X9097467Y-13014008D01*
X9097467Y-13014008D02*
X9116515Y-13033055D01*
X9116515Y-13033055D02*
X9126039Y-13052103D01*
X9126039Y-13052103D02*
X9135563Y-13090198D01*
X9135563Y-13090198D02*
X9135563Y-13118769D01*
X9135563Y-13118769D02*
X9126039Y-13156865D01*
X9126039Y-13156865D02*
X9116515Y-13175912D01*
X9116515Y-13175912D02*
X9097467Y-13194960D01*
X9097467Y-13194960D02*
X9068896Y-13204484D01*
X9068896Y-13204484D02*
X9021277Y-13204484D01*
X9221277Y-13204484D02*
X9221277Y-13071150D01*
X9221277Y-13109246D02*
X9230801Y-13090198D01*
X9230801Y-13090198D02*
X9240324Y-13080674D01*
X9240324Y-13080674D02*
X9259372Y-13071150D01*
X9259372Y-13071150D02*
X9278420Y-13071150D01*
X9345086Y-13204484D02*
X9345086Y-13071150D01*
X9345086Y-13004484D02*
X9335563Y-13014008D01*
X9335563Y-13014008D02*
X9345086Y-13023531D01*
X9345086Y-13023531D02*
X9354610Y-13014008D01*
X9354610Y-13014008D02*
X9345086Y-13004484D01*
X9345086Y-13004484D02*
X9345086Y-13023531D01*
X9468896Y-13204484D02*
X9449848Y-13194960D01*
X9449848Y-13194960D02*
X9440324Y-13175912D01*
X9440324Y-13175912D02*
X9440324Y-13004484D01*
X9573658Y-13204484D02*
X9554610Y-13194960D01*
X9554610Y-13194960D02*
X9545086Y-13175912D01*
X9545086Y-13175912D02*
X9545086Y-13004484D01*
X9802229Y-13204484D02*
X9802229Y-13004484D01*
X9802229Y-13004484D02*
X9868896Y-13147341D01*
X9868896Y-13147341D02*
X9935563Y-13004484D01*
X9935563Y-13004484D02*
X9935563Y-13204484D01*
X10116515Y-13204484D02*
X10116515Y-13099722D01*
X10116515Y-13099722D02*
X10106991Y-13080674D01*
X10106991Y-13080674D02*
X10087944Y-13071150D01*
X10087944Y-13071150D02*
X10049848Y-13071150D01*
X10049848Y-13071150D02*
X10030801Y-13080674D01*
X10116515Y-13194960D02*
X10097467Y-13204484D01*
X10097467Y-13204484D02*
X10049848Y-13204484D01*
X10049848Y-13204484D02*
X10030801Y-13194960D01*
X10030801Y-13194960D02*
X10021277Y-13175912D01*
X10021277Y-13175912D02*
X10021277Y-13156865D01*
X10021277Y-13156865D02*
X10030801Y-13137817D01*
X10030801Y-13137817D02*
X10049848Y-13128293D01*
X10049848Y-13128293D02*
X10097467Y-13128293D01*
X10097467Y-13128293D02*
X10116515Y-13118769D01*
X10211753Y-13071150D02*
X10211753Y-13271150D01*
X10211753Y-13080674D02*
X10230801Y-13071150D01*
X10230801Y-13071150D02*
X10268896Y-13071150D01*
X10268896Y-13071150D02*
X10287944Y-13080674D01*
X10287944Y-13080674D02*
X10297467Y-13090198D01*
X10297467Y-13090198D02*
X10306991Y-13109246D01*
X10306991Y-13109246D02*
X10306991Y-13166388D01*
X10306991Y-13166388D02*
X10297467Y-13185436D01*
X10297467Y-13185436D02*
X10287944Y-13194960D01*
X10287944Y-13194960D02*
X10268896Y-13204484D01*
X10268896Y-13204484D02*
X10230801Y-13204484D01*
X10230801Y-13204484D02*
X10211753Y-13194960D01*
X10392705Y-13185436D02*
X10402229Y-13194960D01*
X10402229Y-13194960D02*
X10392705Y-13204484D01*
X10392705Y-13204484D02*
X10383182Y-13194960D01*
X10383182Y-13194960D02*
X10392705Y-13185436D01*
X10392705Y-13185436D02*
X10392705Y-13204484D01*
X10392705Y-13080674D02*
X10402229Y-13090198D01*
X10402229Y-13090198D02*
X10392705Y-13099722D01*
X10392705Y-13099722D02*
X10383182Y-13090198D01*
X10383182Y-13090198D02*
X10392705Y-13080674D01*
X10392705Y-13080674D02*
X10392705Y-13099722D01*
M02*
