G04 #@! TF.GenerationSoftware,KiCad,Pcbnew,8.0.3*
G04 #@! TF.CreationDate,2024-07-15T18:44:28+02:00*
G04 #@! TF.ProjectId,DCDC,44434443-2e6b-4696-9361-645f70636258,rev?*
G04 #@! TF.SameCoordinates,Original*
G04 #@! TF.FileFunction,Copper,L1,Top*
G04 #@! TF.FilePolarity,Positive*
%FSLAX46Y46*%
G04 Gerber Fmt 4.6, Leading zero omitted, Abs format (unit mm)*
G04 Created by KiCad (PCBNEW 8.0.3) date 2024-07-15 18:44:28*
%MOMM*%
%LPD*%
G01*
G04 APERTURE LIST*
G04 Aperture macros list*
%AMRoundRect*
0 Rectangle with rounded corners*
0 $1 Rounding radius*
0 $2 $3 $4 $5 $6 $7 $8 $9 X,Y pos of 4 corners*
0 Add a 4 corners polygon primitive as box body*
4,1,4,$2,$3,$4,$5,$6,$7,$8,$9,$2,$3,0*
0 Add four circle primitives for the rounded corners*
1,1,$1+$1,$2,$3*
1,1,$1+$1,$4,$5*
1,1,$1+$1,$6,$7*
1,1,$1+$1,$8,$9*
0 Add four rect primitives between the rounded corners*
20,1,$1+$1,$2,$3,$4,$5,0*
20,1,$1+$1,$4,$5,$6,$7,0*
20,1,$1+$1,$6,$7,$8,$9,0*
20,1,$1+$1,$8,$9,$2,$3,0*%
G04 Aperture macros list end*
G04 #@! TA.AperFunction,SMDPad,CuDef*
%ADD10RoundRect,0.150000X0.512500X0.150000X-0.512500X0.150000X-0.512500X-0.150000X0.512500X-0.150000X0*%
G04 #@! TD*
G04 #@! TA.AperFunction,ComponentPad*
%ADD11C,1.400000*%
G04 #@! TD*
G04 #@! TA.AperFunction,SMDPad,CuDef*
%ADD12RoundRect,0.250000X0.450000X-0.350000X0.450000X0.350000X-0.450000X0.350000X-0.450000X-0.350000X0*%
G04 #@! TD*
G04 #@! TA.AperFunction,SMDPad,CuDef*
%ADD13R,3.550000X3.500000*%
G04 #@! TD*
G04 #@! TA.AperFunction,ComponentPad*
%ADD14R,1.800000X1.800000*%
G04 #@! TD*
G04 #@! TA.AperFunction,ComponentPad*
%ADD15C,1.800000*%
G04 #@! TD*
G04 #@! TA.AperFunction,SMDPad,CuDef*
%ADD16RoundRect,0.250000X-0.475000X0.337500X-0.475000X-0.337500X0.475000X-0.337500X0.475000X0.337500X0*%
G04 #@! TD*
G04 #@! TA.AperFunction,SMDPad,CuDef*
%ADD17RoundRect,0.250000X0.475000X-0.337500X0.475000X0.337500X-0.475000X0.337500X-0.475000X-0.337500X0*%
G04 #@! TD*
G04 #@! TA.AperFunction,SMDPad,CuDef*
%ADD18RoundRect,0.250000X1.950000X1.000000X-1.950000X1.000000X-1.950000X-1.000000X1.950000X-1.000000X0*%
G04 #@! TD*
G04 #@! TA.AperFunction,SMDPad,CuDef*
%ADD19RoundRect,0.250000X-0.337500X-0.475000X0.337500X-0.475000X0.337500X0.475000X-0.337500X0.475000X0*%
G04 #@! TD*
G04 #@! TA.AperFunction,ViaPad*
%ADD20C,0.600000*%
G04 #@! TD*
G04 #@! TA.AperFunction,Conductor*
%ADD21C,0.750000*%
G04 #@! TD*
G04 #@! TA.AperFunction,Conductor*
%ADD22C,0.200000*%
G04 #@! TD*
G04 #@! TA.AperFunction,Conductor*
%ADD23C,0.500000*%
G04 #@! TD*
G04 APERTURE END LIST*
D10*
X100767500Y-117355000D03*
X100767500Y-116405000D03*
X100767500Y-115455000D03*
X98492500Y-115455000D03*
X98492500Y-116405000D03*
X98492500Y-117355000D03*
D11*
X103630000Y-126405000D03*
X101130000Y-123905000D03*
X98630000Y-126405000D03*
D12*
X95630000Y-124405000D03*
X95630000Y-126405000D03*
D13*
X108155000Y-122405000D03*
X117105000Y-122405000D03*
D14*
X125630000Y-117675000D03*
D15*
X125630000Y-115135000D03*
D14*
X89630000Y-115135000D03*
D15*
X89630000Y-117675000D03*
D16*
X95630000Y-117367500D03*
X95630000Y-119442500D03*
D17*
X95630000Y-115442500D03*
X95630000Y-113367500D03*
D18*
X116830000Y-110905000D03*
X108430000Y-110905000D03*
D19*
X99092500Y-119905000D03*
X101167500Y-119905000D03*
D20*
X102130000Y-117405000D03*
X104630000Y-110905000D03*
X95630000Y-121905000D03*
X95630000Y-111905000D03*
D21*
X98492500Y-116405000D02*
X96630000Y-116405000D01*
D22*
X95630000Y-113367500D02*
X95630000Y-111905000D01*
X100130000Y-118905000D02*
X100130000Y-121405000D01*
X99630000Y-118405000D02*
X100130000Y-118905000D01*
X100130000Y-121405000D02*
X101130000Y-122405000D01*
X99630000Y-115905000D02*
X99630000Y-118405000D01*
X101130000Y-122405000D02*
X101130000Y-123905000D01*
X99092500Y-118867500D02*
X98492500Y-118267500D01*
X98492500Y-118267500D02*
X98492500Y-117355000D01*
X99092500Y-119905000D02*
X99092500Y-118867500D01*
X102080000Y-117355000D02*
X102130000Y-117405000D01*
X100767500Y-117355000D02*
X102080000Y-117355000D01*
D21*
X100767500Y-116405000D02*
X103130000Y-116405000D01*
D23*
X105630000Y-110905000D02*
X104630000Y-110905000D01*
X108430000Y-110905000D02*
X105630000Y-110905000D01*
D22*
X98630000Y-126405000D02*
X95630000Y-126405000D01*
X99180000Y-115455000D02*
X99630000Y-115905000D01*
X98492500Y-115455000D02*
X99180000Y-115455000D01*
X95630000Y-124405000D02*
X95630000Y-121905000D01*
X95630000Y-121905000D02*
X95630000Y-119442500D01*
G04 #@! TA.AperFunction,Conductor*
G36*
X106573039Y-104425185D02*
G01*
X106618794Y-104477989D01*
X106630000Y-104529500D01*
X106630000Y-108781000D01*
X106610315Y-108848039D01*
X106557511Y-108893794D01*
X106506000Y-108905000D01*
X105630000Y-108905000D01*
X105630000Y-109781000D01*
X105610315Y-109848039D01*
X105557511Y-109893794D01*
X105506000Y-109905000D01*
X104130000Y-109905000D01*
X104130000Y-110221560D01*
X104110315Y-110288599D01*
X104093681Y-110309241D01*
X104000184Y-110402737D01*
X103904211Y-110555476D01*
X103844631Y-110725745D01*
X103844630Y-110725750D01*
X103824435Y-110904996D01*
X103824435Y-110905003D01*
X103844630Y-111084249D01*
X103844631Y-111084254D01*
X103904211Y-111254523D01*
X104000184Y-111407262D01*
X104093681Y-111500759D01*
X104127166Y-111562082D01*
X104130000Y-111588440D01*
X104130000Y-112275500D01*
X104110315Y-112342539D01*
X104057511Y-112388294D01*
X104006000Y-112399500D01*
X102754000Y-112399500D01*
X102753991Y-112399500D01*
X102753990Y-112399501D01*
X102709457Y-112404289D01*
X102696202Y-112405000D01*
X102130000Y-112405000D01*
X102130000Y-112981877D01*
X102128738Y-112999523D01*
X102124500Y-113028998D01*
X102124500Y-115405500D01*
X102104815Y-115472539D01*
X102052011Y-115518294D01*
X102000500Y-115529500D01*
X100681268Y-115529500D01*
X100512133Y-115563143D01*
X100512125Y-115563145D01*
X100435074Y-115595061D01*
X100387621Y-115604500D01*
X100221496Y-115604500D01*
X100154457Y-115584815D01*
X100114108Y-115542499D01*
X100110520Y-115536284D01*
X99998716Y-115424480D01*
X99998715Y-115424479D01*
X99994385Y-115420149D01*
X99994374Y-115420139D01*
X99667590Y-115093355D01*
X99667588Y-115093352D01*
X99666319Y-115092083D01*
X99665863Y-115091249D01*
X99652097Y-115074457D01*
X99652095Y-115074454D01*
X99655465Y-115072206D01*
X99632834Y-115030760D01*
X99630000Y-115004402D01*
X99630000Y-113905000D01*
X97254000Y-113905000D01*
X97186961Y-113885315D01*
X97141206Y-113832511D01*
X97130000Y-113781000D01*
X97130000Y-111405000D01*
X96880000Y-111405000D01*
X96313440Y-111405000D01*
X96246401Y-111385315D01*
X96225759Y-111368681D01*
X96132262Y-111275184D01*
X95979523Y-111179211D01*
X95809254Y-111119631D01*
X95809249Y-111119630D01*
X95630004Y-111099435D01*
X95629996Y-111099435D01*
X95450750Y-111119630D01*
X95450745Y-111119631D01*
X95280476Y-111179211D01*
X95127737Y-111275184D01*
X95034241Y-111368681D01*
X94972918Y-111402166D01*
X94946560Y-111405000D01*
X94130000Y-111405000D01*
X94130000Y-114405000D01*
X94861484Y-114405000D01*
X94900488Y-114411294D01*
X95002203Y-114444999D01*
X95104991Y-114455500D01*
X96155008Y-114455499D01*
X96155016Y-114455498D01*
X96155019Y-114455498D01*
X96211302Y-114449748D01*
X96257797Y-114444999D01*
X96359512Y-114411294D01*
X96398516Y-114405000D01*
X97006000Y-114405000D01*
X97073039Y-114424685D01*
X97118794Y-114477489D01*
X97130000Y-114529000D01*
X97130000Y-118281000D01*
X97110315Y-118348039D01*
X97057511Y-118393794D01*
X97006000Y-118405000D01*
X96398516Y-118405000D01*
X96359512Y-118398706D01*
X96340495Y-118392404D01*
X96257797Y-118365001D01*
X96257795Y-118365000D01*
X96155010Y-118354500D01*
X95104998Y-118354500D01*
X95104980Y-118354501D01*
X95002203Y-118365000D01*
X95002200Y-118365001D01*
X94900488Y-118398706D01*
X94861484Y-118405000D01*
X94130000Y-118405000D01*
X94130000Y-128280500D01*
X94110315Y-128347539D01*
X94057511Y-128393294D01*
X94006000Y-128404500D01*
X88254500Y-128404500D01*
X88187461Y-128384815D01*
X88141706Y-128332011D01*
X88130500Y-128280500D01*
X88130500Y-118334340D01*
X88150185Y-118267301D01*
X88202989Y-118221546D01*
X88272147Y-118211602D01*
X88335703Y-118240627D01*
X88368056Y-118284530D01*
X88394075Y-118343848D01*
X88521016Y-118538147D01*
X88521019Y-118538151D01*
X88521021Y-118538153D01*
X88678216Y-118708913D01*
X88678219Y-118708915D01*
X88678222Y-118708918D01*
X88861365Y-118851464D01*
X88861371Y-118851468D01*
X88861374Y-118851470D01*
X89065497Y-118961936D01*
X89179487Y-119001068D01*
X89285015Y-119037297D01*
X89285017Y-119037297D01*
X89285019Y-119037298D01*
X89513951Y-119075500D01*
X89513952Y-119075500D01*
X89746048Y-119075500D01*
X89746049Y-119075500D01*
X89974981Y-119037298D01*
X90194503Y-118961936D01*
X90398626Y-118851470D01*
X90581784Y-118708913D01*
X90738979Y-118538153D01*
X90865924Y-118343849D01*
X90959157Y-118131300D01*
X91016134Y-117906305D01*
X91035300Y-117675000D01*
X91035300Y-117674993D01*
X91016135Y-117443702D01*
X91016133Y-117443691D01*
X90959157Y-117218699D01*
X90865924Y-117006151D01*
X90738983Y-116811852D01*
X90738980Y-116811849D01*
X90738979Y-116811847D01*
X90581784Y-116641087D01*
X90581779Y-116641083D01*
X90581777Y-116641081D01*
X90398634Y-116498535D01*
X90398628Y-116498531D01*
X90194504Y-116388064D01*
X90194495Y-116388061D01*
X89974984Y-116312702D01*
X89803282Y-116284050D01*
X89746049Y-116274500D01*
X89513951Y-116274500D01*
X89468164Y-116282140D01*
X89285015Y-116312702D01*
X89065504Y-116388061D01*
X89065495Y-116388064D01*
X88861371Y-116498531D01*
X88861365Y-116498535D01*
X88678222Y-116641081D01*
X88678219Y-116641084D01*
X88521016Y-116811852D01*
X88394076Y-117006149D01*
X88368056Y-117065470D01*
X88323099Y-117118955D01*
X88256363Y-117139645D01*
X88189035Y-117120970D01*
X88142492Y-117068859D01*
X88130500Y-117015659D01*
X88130500Y-104529500D01*
X88150185Y-104462461D01*
X88202989Y-104416706D01*
X88254500Y-104405500D01*
X106506000Y-104405500D01*
X106573039Y-104425185D01*
G37*
G04 #@! TD.AperFunction*
G04 #@! TA.AperFunction,Conductor*
G36*
X127072539Y-104425185D02*
G01*
X127118294Y-104477989D01*
X127129500Y-104529500D01*
X127129500Y-114475659D01*
X127109815Y-114542698D01*
X127057011Y-114588453D01*
X126987853Y-114598397D01*
X126924297Y-114569372D01*
X126891944Y-114525470D01*
X126865923Y-114466149D01*
X126738983Y-114271852D01*
X126738980Y-114271849D01*
X126738979Y-114271847D01*
X126581784Y-114101087D01*
X126581779Y-114101083D01*
X126581777Y-114101081D01*
X126398634Y-113958535D01*
X126398628Y-113958531D01*
X126194504Y-113848064D01*
X126194495Y-113848061D01*
X125974984Y-113772702D01*
X125803282Y-113744050D01*
X125746049Y-113734500D01*
X125513951Y-113734500D01*
X125468164Y-113742140D01*
X125285015Y-113772702D01*
X125065504Y-113848061D01*
X125065495Y-113848064D01*
X124861371Y-113958531D01*
X124861365Y-113958535D01*
X124678222Y-114101081D01*
X124678219Y-114101084D01*
X124521016Y-114271852D01*
X124394075Y-114466151D01*
X124300842Y-114678699D01*
X124243866Y-114903691D01*
X124243864Y-114903702D01*
X124224700Y-115134993D01*
X124224700Y-115135006D01*
X124243864Y-115366297D01*
X124243866Y-115366308D01*
X124300842Y-115591300D01*
X124394075Y-115803848D01*
X124521016Y-115998147D01*
X124521019Y-115998151D01*
X124521021Y-115998153D01*
X124678216Y-116168913D01*
X124678219Y-116168915D01*
X124678222Y-116168918D01*
X124861365Y-116311464D01*
X124861371Y-116311468D01*
X124861374Y-116311470D01*
X125065497Y-116421936D01*
X125179487Y-116461068D01*
X125285015Y-116497297D01*
X125285017Y-116497297D01*
X125285019Y-116497298D01*
X125513951Y-116535500D01*
X125513952Y-116535500D01*
X125746048Y-116535500D01*
X125746049Y-116535500D01*
X125974981Y-116497298D01*
X126194503Y-116421936D01*
X126398626Y-116311470D01*
X126581784Y-116168913D01*
X126738979Y-115998153D01*
X126865924Y-115803849D01*
X126891944Y-115744530D01*
X126936900Y-115691044D01*
X127003636Y-115670354D01*
X127070964Y-115689029D01*
X127117507Y-115741139D01*
X127129500Y-115794340D01*
X127129500Y-128280500D01*
X127109815Y-128347539D01*
X127057011Y-128393294D01*
X127005500Y-128404500D01*
X101254000Y-128404500D01*
X101186961Y-128384815D01*
X101141206Y-128332011D01*
X101130000Y-128280500D01*
X101130000Y-125529000D01*
X101149685Y-125461961D01*
X101202489Y-125416206D01*
X101254000Y-125405000D01*
X111630000Y-125405000D01*
X111630000Y-104529500D01*
X111649685Y-104462461D01*
X111702489Y-104416706D01*
X111754000Y-104405500D01*
X127005500Y-104405500D01*
X127072539Y-104425185D01*
G37*
G04 #@! TD.AperFunction*
G04 #@! TA.AperFunction,Conductor*
G36*
X111073039Y-112924685D02*
G01*
X111118794Y-112977489D01*
X111130000Y-113029000D01*
X111130000Y-124781000D01*
X111110315Y-124848039D01*
X111057511Y-124893794D01*
X111006000Y-124905000D01*
X102754000Y-124905000D01*
X102686961Y-124885315D01*
X102641206Y-124832511D01*
X102630000Y-124781000D01*
X102630000Y-121405000D01*
X101030598Y-121405000D01*
X100963559Y-121385315D01*
X100942917Y-121368681D01*
X100766819Y-121192583D01*
X100733334Y-121131260D01*
X100730500Y-121104902D01*
X100730500Y-118994060D01*
X100730501Y-118994047D01*
X100730501Y-118825944D01*
X100730501Y-118825943D01*
X100689577Y-118673216D01*
X100646612Y-118598797D01*
X100630000Y-118536798D01*
X100630000Y-118529000D01*
X100649685Y-118461961D01*
X100702489Y-118416206D01*
X100754000Y-118405000D01*
X102630000Y-118405000D01*
X102630000Y-118088440D01*
X102649685Y-118021401D01*
X102666319Y-118000759D01*
X102759816Y-117907262D01*
X102855789Y-117754522D01*
X102915368Y-117584255D01*
X102935565Y-117405000D01*
X102915368Y-117225745D01*
X102855789Y-117055478D01*
X102759816Y-116902738D01*
X102666319Y-116809241D01*
X102632834Y-116747918D01*
X102630000Y-116721560D01*
X102630000Y-113029000D01*
X102649685Y-112961961D01*
X102702489Y-112916206D01*
X102754000Y-112905000D01*
X111006000Y-112905000D01*
X111073039Y-112924685D01*
G37*
G04 #@! TD.AperFunction*
M02*
