G04 #@! TF.GenerationSoftware,KiCad,Pcbnew,8.0.3*
G04 #@! TF.CreationDate,2024-07-15T18:44:28+02:00*
G04 #@! TF.ProjectId,DCDC,44434443-2e6b-4696-9361-645f70636258,rev?*
G04 #@! TF.SameCoordinates,Original*
G04 #@! TF.FileFunction,Copper,L2,Bot*
G04 #@! TF.FilePolarity,Positive*
%FSLAX46Y46*%
G04 Gerber Fmt 4.6, Leading zero omitted, Abs format (unit mm)*
G04 Created by KiCad (PCBNEW 8.0.3) date 2024-07-15 18:44:28*
%MOMM*%
%LPD*%
G01*
G04 APERTURE LIST*
G04 #@! TA.AperFunction,ComponentPad*
%ADD10C,1.400000*%
G04 #@! TD*
G04 #@! TA.AperFunction,ComponentPad*
%ADD11R,1.800000X1.800000*%
G04 #@! TD*
G04 #@! TA.AperFunction,ComponentPad*
%ADD12C,1.800000*%
G04 #@! TD*
G04 #@! TA.AperFunction,ViaPad*
%ADD13C,0.600000*%
G04 #@! TD*
G04 APERTURE END LIST*
D10*
X103630000Y-126405000D03*
X101130000Y-123905000D03*
X98630000Y-126405000D03*
D11*
X125630000Y-117675000D03*
D12*
X125630000Y-115135000D03*
D11*
X89630000Y-115135000D03*
D12*
X89630000Y-117675000D03*
D13*
X102130000Y-117405000D03*
X104630000Y-110905000D03*
X95630000Y-121905000D03*
X95630000Y-111905000D03*
G04 #@! TA.AperFunction,Conductor*
G36*
X127072539Y-104425185D02*
G01*
X127118294Y-104477989D01*
X127129500Y-104529500D01*
X127129500Y-116368106D01*
X127109815Y-116435145D01*
X127057011Y-116480900D01*
X126987853Y-116490844D01*
X126924297Y-116461819D01*
X126906234Y-116442418D01*
X126900789Y-116435145D01*
X126887546Y-116417454D01*
X126887544Y-116417453D01*
X126887544Y-116417452D01*
X126772335Y-116331206D01*
X126772328Y-116331202D01*
X126637482Y-116280908D01*
X126637483Y-116280908D01*
X126577883Y-116274501D01*
X126577881Y-116274500D01*
X126577873Y-116274500D01*
X126577864Y-116274500D01*
X124682129Y-116274500D01*
X124682123Y-116274501D01*
X124622516Y-116280908D01*
X124487671Y-116331202D01*
X124487664Y-116331206D01*
X124372455Y-116417452D01*
X124372452Y-116417455D01*
X124286206Y-116532664D01*
X124286202Y-116532671D01*
X124235908Y-116667517D01*
X124229501Y-116727116D01*
X124229500Y-116727135D01*
X124229500Y-118622870D01*
X124229501Y-118622876D01*
X124235908Y-118682483D01*
X124286202Y-118817328D01*
X124286206Y-118817335D01*
X124372452Y-118932544D01*
X124372455Y-118932547D01*
X124487664Y-119018793D01*
X124487671Y-119018797D01*
X124622517Y-119069091D01*
X124622516Y-119069091D01*
X124629444Y-119069835D01*
X124682127Y-119075500D01*
X126577872Y-119075499D01*
X126637483Y-119069091D01*
X126772331Y-119018796D01*
X126887546Y-118932546D01*
X126906233Y-118907582D01*
X126962166Y-118865711D01*
X127031858Y-118860727D01*
X127093181Y-118894212D01*
X127126666Y-118955535D01*
X127129500Y-118981893D01*
X127129500Y-128280500D01*
X127109815Y-128347539D01*
X127057011Y-128393294D01*
X127005500Y-128404500D01*
X88254500Y-128404500D01*
X88187461Y-128384815D01*
X88141706Y-128332011D01*
X88130500Y-128280500D01*
X88130500Y-126404999D01*
X97424357Y-126404999D01*
X97424357Y-126405000D01*
X97444884Y-126626535D01*
X97444885Y-126626537D01*
X97505769Y-126840523D01*
X97505775Y-126840538D01*
X97604938Y-127039683D01*
X97604943Y-127039691D01*
X97739020Y-127217238D01*
X97903437Y-127367123D01*
X97903439Y-127367125D01*
X98092595Y-127484245D01*
X98092596Y-127484245D01*
X98092599Y-127484247D01*
X98300060Y-127564618D01*
X98518757Y-127605500D01*
X98518759Y-127605500D01*
X98741241Y-127605500D01*
X98741243Y-127605500D01*
X98959940Y-127564618D01*
X99167401Y-127484247D01*
X99356562Y-127367124D01*
X99520981Y-127217236D01*
X99655058Y-127039689D01*
X99754229Y-126840528D01*
X99815115Y-126626536D01*
X99835643Y-126405000D01*
X99835643Y-126404999D01*
X102424357Y-126404999D01*
X102424357Y-126405000D01*
X102444884Y-126626535D01*
X102444885Y-126626537D01*
X102505769Y-126840523D01*
X102505775Y-126840538D01*
X102604938Y-127039683D01*
X102604943Y-127039691D01*
X102739020Y-127217238D01*
X102903437Y-127367123D01*
X102903439Y-127367125D01*
X103092595Y-127484245D01*
X103092596Y-127484245D01*
X103092599Y-127484247D01*
X103300060Y-127564618D01*
X103518757Y-127605500D01*
X103518759Y-127605500D01*
X103741241Y-127605500D01*
X103741243Y-127605500D01*
X103959940Y-127564618D01*
X104167401Y-127484247D01*
X104356562Y-127367124D01*
X104520981Y-127217236D01*
X104655058Y-127039689D01*
X104754229Y-126840528D01*
X104815115Y-126626536D01*
X104835643Y-126405000D01*
X104815115Y-126183464D01*
X104754229Y-125969472D01*
X104754224Y-125969461D01*
X104655061Y-125770316D01*
X104655056Y-125770308D01*
X104520979Y-125592761D01*
X104356562Y-125442876D01*
X104356560Y-125442874D01*
X104167404Y-125325754D01*
X104167398Y-125325752D01*
X103959940Y-125245382D01*
X103741243Y-125204500D01*
X103518757Y-125204500D01*
X103300060Y-125245382D01*
X103168864Y-125296207D01*
X103092601Y-125325752D01*
X103092595Y-125325754D01*
X102903439Y-125442874D01*
X102903437Y-125442876D01*
X102739020Y-125592761D01*
X102604943Y-125770308D01*
X102604938Y-125770316D01*
X102505775Y-125969461D01*
X102505769Y-125969476D01*
X102444885Y-126183462D01*
X102444884Y-126183464D01*
X102424357Y-126404999D01*
X99835643Y-126404999D01*
X99815115Y-126183464D01*
X99754229Y-125969472D01*
X99754224Y-125969461D01*
X99655061Y-125770316D01*
X99655056Y-125770308D01*
X99520979Y-125592761D01*
X99356562Y-125442876D01*
X99356560Y-125442874D01*
X99167404Y-125325754D01*
X99167398Y-125325752D01*
X98959940Y-125245382D01*
X98741243Y-125204500D01*
X98518757Y-125204500D01*
X98300060Y-125245382D01*
X98168864Y-125296207D01*
X98092601Y-125325752D01*
X98092595Y-125325754D01*
X97903439Y-125442874D01*
X97903437Y-125442876D01*
X97739020Y-125592761D01*
X97604943Y-125770308D01*
X97604938Y-125770316D01*
X97505775Y-125969461D01*
X97505769Y-125969476D01*
X97444885Y-126183462D01*
X97444884Y-126183464D01*
X97424357Y-126404999D01*
X88130500Y-126404999D01*
X88130500Y-123904999D01*
X99924357Y-123904999D01*
X99924357Y-123905000D01*
X99944884Y-124126535D01*
X99944885Y-124126537D01*
X100005769Y-124340523D01*
X100005775Y-124340538D01*
X100104938Y-124539683D01*
X100104943Y-124539691D01*
X100239020Y-124717238D01*
X100403437Y-124867123D01*
X100403439Y-124867125D01*
X100592595Y-124984245D01*
X100592596Y-124984245D01*
X100592599Y-124984247D01*
X100800060Y-125064618D01*
X101018757Y-125105500D01*
X101018759Y-125105500D01*
X101241241Y-125105500D01*
X101241243Y-125105500D01*
X101459940Y-125064618D01*
X101667401Y-124984247D01*
X101856562Y-124867124D01*
X102020981Y-124717236D01*
X102155058Y-124539689D01*
X102254229Y-124340528D01*
X102315115Y-124126536D01*
X102335643Y-123905000D01*
X102315115Y-123683464D01*
X102254229Y-123469472D01*
X102254224Y-123469461D01*
X102155061Y-123270316D01*
X102155056Y-123270308D01*
X102020979Y-123092761D01*
X101856562Y-122942876D01*
X101856560Y-122942874D01*
X101667404Y-122825754D01*
X101667398Y-122825752D01*
X101459940Y-122745382D01*
X101241243Y-122704500D01*
X101018757Y-122704500D01*
X100800060Y-122745382D01*
X100668864Y-122796207D01*
X100592601Y-122825752D01*
X100592595Y-122825754D01*
X100403439Y-122942874D01*
X100403437Y-122942876D01*
X100239020Y-123092761D01*
X100104943Y-123270308D01*
X100104938Y-123270316D01*
X100005775Y-123469461D01*
X100005769Y-123469476D01*
X99944885Y-123683462D01*
X99944884Y-123683464D01*
X99924357Y-123904999D01*
X88130500Y-123904999D01*
X88130500Y-116441893D01*
X88150185Y-116374854D01*
X88202989Y-116329099D01*
X88272147Y-116319155D01*
X88335703Y-116348180D01*
X88353765Y-116367581D01*
X88359210Y-116374854D01*
X88372454Y-116392546D01*
X88372455Y-116392547D01*
X88487664Y-116478793D01*
X88487671Y-116478797D01*
X88622517Y-116529091D01*
X88622516Y-116529091D01*
X88629444Y-116529835D01*
X88682127Y-116535500D01*
X90577872Y-116535499D01*
X90637483Y-116529091D01*
X90772331Y-116478796D01*
X90887546Y-116392546D01*
X90973796Y-116277331D01*
X91024091Y-116142483D01*
X91030500Y-116082873D01*
X91030499Y-114187128D01*
X91024091Y-114127517D01*
X90973796Y-113992669D01*
X90973795Y-113992668D01*
X90973793Y-113992664D01*
X90887547Y-113877455D01*
X90887544Y-113877452D01*
X90772335Y-113791206D01*
X90772328Y-113791202D01*
X90637482Y-113740908D01*
X90637483Y-113740908D01*
X90577883Y-113734501D01*
X90577881Y-113734500D01*
X90577873Y-113734500D01*
X90577864Y-113734500D01*
X88682129Y-113734500D01*
X88682123Y-113734501D01*
X88622516Y-113740908D01*
X88487671Y-113791202D01*
X88487664Y-113791206D01*
X88372455Y-113877452D01*
X88353766Y-113902418D01*
X88297832Y-113944288D01*
X88228140Y-113949272D01*
X88166818Y-113915786D01*
X88133333Y-113854462D01*
X88130500Y-113828106D01*
X88130500Y-104529500D01*
X88150185Y-104462461D01*
X88202989Y-104416706D01*
X88254500Y-104405500D01*
X127005500Y-104405500D01*
X127072539Y-104425185D01*
G37*
G04 #@! TD.AperFunction*
M02*
