G04 #@! TF.GenerationSoftware,KiCad,Pcbnew,8.0.3*
G04 #@! TF.CreationDate,2024-07-15T18:44:28+02:00*
G04 #@! TF.ProjectId,DCDC,44434443-2e6b-4696-9361-645f70636258,rev?*
G04 #@! TF.SameCoordinates,Original*
G04 #@! TF.FileFunction,Legend,Top*
G04 #@! TF.FilePolarity,Positive*
%FSLAX46Y46*%
G04 Gerber Fmt 4.6, Leading zero omitted, Abs format (unit mm)*
G04 Created by KiCad (PCBNEW 8.0.3) date 2024-07-15 18:44:28*
%MOMM*%
%LPD*%
G01*
G04 APERTURE LIST*
G04 Aperture macros list*
%AMRoundRect*
0 Rectangle with rounded corners*
0 $1 Rounding radius*
0 $2 $3 $4 $5 $6 $7 $8 $9 X,Y pos of 4 corners*
0 Add a 4 corners polygon primitive as box body*
4,1,4,$2,$3,$4,$5,$6,$7,$8,$9,$2,$3,0*
0 Add four circle primitives for the rounded corners*
1,1,$1+$1,$2,$3*
1,1,$1+$1,$4,$5*
1,1,$1+$1,$6,$7*
1,1,$1+$1,$8,$9*
0 Add four rect primitives between the rounded corners*
20,1,$1+$1,$2,$3,$4,$5,0*
20,1,$1+$1,$4,$5,$6,$7,0*
20,1,$1+$1,$6,$7,$8,$9,0*
20,1,$1+$1,$8,$9,$2,$3,0*%
G04 Aperture macros list end*
%ADD10C,0.150000*%
%ADD11C,0.254000*%
%ADD12C,0.120000*%
%ADD13C,0.100000*%
%ADD14C,0.200000*%
%ADD15RoundRect,0.150000X0.512500X0.150000X-0.512500X0.150000X-0.512500X-0.150000X0.512500X-0.150000X0*%
%ADD16C,1.400000*%
%ADD17RoundRect,0.250000X0.450000X-0.350000X0.450000X0.350000X-0.450000X0.350000X-0.450000X-0.350000X0*%
%ADD18R,3.550000X3.500000*%
%ADD19R,1.800000X1.800000*%
%ADD20C,1.800000*%
%ADD21RoundRect,0.250000X-0.475000X0.337500X-0.475000X-0.337500X0.475000X-0.337500X0.475000X0.337500X0*%
%ADD22RoundRect,0.250000X0.475000X-0.337500X0.475000X0.337500X-0.475000X0.337500X-0.475000X-0.337500X0*%
%ADD23RoundRect,0.250000X1.950000X1.000000X-1.950000X1.000000X-1.950000X-1.000000X1.950000X-1.000000X0*%
%ADD24RoundRect,0.250000X-0.337500X-0.475000X0.337500X-0.475000X0.337500X0.475000X-0.337500X0.475000X0*%
G04 APERTURE END LIST*
D10*
X121442970Y-125260113D02*
X121490589Y-125212494D01*
X121490589Y-125212494D02*
X121585827Y-125164875D01*
X121585827Y-125164875D02*
X121823922Y-125164875D01*
X121823922Y-125164875D02*
X121919160Y-125212494D01*
X121919160Y-125212494D02*
X121966779Y-125260113D01*
X121966779Y-125260113D02*
X122014398Y-125355351D01*
X122014398Y-125355351D02*
X122014398Y-125450589D01*
X122014398Y-125450589D02*
X121966779Y-125593446D01*
X121966779Y-125593446D02*
X121395351Y-126164875D01*
X121395351Y-126164875D02*
X122014398Y-126164875D01*
X122633446Y-125164875D02*
X122728684Y-125164875D01*
X122728684Y-125164875D02*
X122823922Y-125212494D01*
X122823922Y-125212494D02*
X122871541Y-125260113D01*
X122871541Y-125260113D02*
X122919160Y-125355351D01*
X122919160Y-125355351D02*
X122966779Y-125545827D01*
X122966779Y-125545827D02*
X122966779Y-125783922D01*
X122966779Y-125783922D02*
X122919160Y-125974398D01*
X122919160Y-125974398D02*
X122871541Y-126069636D01*
X122871541Y-126069636D02*
X122823922Y-126117256D01*
X122823922Y-126117256D02*
X122728684Y-126164875D01*
X122728684Y-126164875D02*
X122633446Y-126164875D01*
X122633446Y-126164875D02*
X122538208Y-126117256D01*
X122538208Y-126117256D02*
X122490589Y-126069636D01*
X122490589Y-126069636D02*
X122442970Y-125974398D01*
X122442970Y-125974398D02*
X122395351Y-125783922D01*
X122395351Y-125783922D02*
X122395351Y-125545827D01*
X122395351Y-125545827D02*
X122442970Y-125355351D01*
X122442970Y-125355351D02*
X122490589Y-125260113D01*
X122490589Y-125260113D02*
X122538208Y-125212494D01*
X122538208Y-125212494D02*
X122633446Y-125164875D01*
X123347732Y-125260113D02*
X123395351Y-125212494D01*
X123395351Y-125212494D02*
X123490589Y-125164875D01*
X123490589Y-125164875D02*
X123728684Y-125164875D01*
X123728684Y-125164875D02*
X123823922Y-125212494D01*
X123823922Y-125212494D02*
X123871541Y-125260113D01*
X123871541Y-125260113D02*
X123919160Y-125355351D01*
X123919160Y-125355351D02*
X123919160Y-125450589D01*
X123919160Y-125450589D02*
X123871541Y-125593446D01*
X123871541Y-125593446D02*
X123300113Y-126164875D01*
X123300113Y-126164875D02*
X123919160Y-126164875D01*
X124776303Y-125498208D02*
X124776303Y-126164875D01*
X124538208Y-125117256D02*
X124300113Y-125831541D01*
X124300113Y-125831541D02*
X124919160Y-125831541D01*
X119823922Y-126774819D02*
X120157255Y-127774819D01*
X120157255Y-127774819D02*
X120490588Y-126774819D01*
X121204874Y-127727200D02*
X121109636Y-127774819D01*
X121109636Y-127774819D02*
X120919160Y-127774819D01*
X120919160Y-127774819D02*
X120823922Y-127727200D01*
X120823922Y-127727200D02*
X120776303Y-127631961D01*
X120776303Y-127631961D02*
X120776303Y-127251009D01*
X120776303Y-127251009D02*
X120823922Y-127155771D01*
X120823922Y-127155771D02*
X120919160Y-127108152D01*
X120919160Y-127108152D02*
X121109636Y-127108152D01*
X121109636Y-127108152D02*
X121204874Y-127155771D01*
X121204874Y-127155771D02*
X121252493Y-127251009D01*
X121252493Y-127251009D02*
X121252493Y-127346247D01*
X121252493Y-127346247D02*
X120776303Y-127441485D01*
X121681065Y-127774819D02*
X121681065Y-127108152D01*
X121681065Y-127298628D02*
X121728684Y-127203390D01*
X121728684Y-127203390D02*
X121776303Y-127155771D01*
X121776303Y-127155771D02*
X121871541Y-127108152D01*
X121871541Y-127108152D02*
X121966779Y-127108152D01*
X122300113Y-127679580D02*
X122347732Y-127727200D01*
X122347732Y-127727200D02*
X122300113Y-127774819D01*
X122300113Y-127774819D02*
X122252494Y-127727200D01*
X122252494Y-127727200D02*
X122300113Y-127679580D01*
X122300113Y-127679580D02*
X122300113Y-127774819D01*
X122300113Y-127155771D02*
X122347732Y-127203390D01*
X122347732Y-127203390D02*
X122300113Y-127251009D01*
X122300113Y-127251009D02*
X122252494Y-127203390D01*
X122252494Y-127203390D02*
X122300113Y-127155771D01*
X122300113Y-127155771D02*
X122300113Y-127251009D01*
X123442970Y-127108152D02*
X123681065Y-127774819D01*
X123681065Y-127774819D02*
X123919160Y-127108152D01*
X124823922Y-127774819D02*
X124252494Y-127774819D01*
X124538208Y-127774819D02*
X124538208Y-126774819D01*
X124538208Y-126774819D02*
X124442970Y-126917676D01*
X124442970Y-126917676D02*
X124347732Y-127012914D01*
X124347732Y-127012914D02*
X124252494Y-127060533D01*
X125252494Y-127679580D02*
X125300113Y-127727200D01*
X125300113Y-127727200D02*
X125252494Y-127774819D01*
X125252494Y-127774819D02*
X125204875Y-127727200D01*
X125204875Y-127727200D02*
X125252494Y-127679580D01*
X125252494Y-127679580D02*
X125252494Y-127774819D01*
X125919160Y-126774819D02*
X126014398Y-126774819D01*
X126014398Y-126774819D02*
X126109636Y-126822438D01*
X126109636Y-126822438D02*
X126157255Y-126870057D01*
X126157255Y-126870057D02*
X126204874Y-126965295D01*
X126204874Y-126965295D02*
X126252493Y-127155771D01*
X126252493Y-127155771D02*
X126252493Y-127393866D01*
X126252493Y-127393866D02*
X126204874Y-127584342D01*
X126204874Y-127584342D02*
X126157255Y-127679580D01*
X126157255Y-127679580D02*
X126109636Y-127727200D01*
X126109636Y-127727200D02*
X126014398Y-127774819D01*
X126014398Y-127774819D02*
X125919160Y-127774819D01*
X125919160Y-127774819D02*
X125823922Y-127727200D01*
X125823922Y-127727200D02*
X125776303Y-127679580D01*
X125776303Y-127679580D02*
X125728684Y-127584342D01*
X125728684Y-127584342D02*
X125681065Y-127393866D01*
X125681065Y-127393866D02*
X125681065Y-127155771D01*
X125681065Y-127155771D02*
X125728684Y-126965295D01*
X125728684Y-126965295D02*
X125776303Y-126870057D01*
X125776303Y-126870057D02*
X125823922Y-126822438D01*
X125823922Y-126822438D02*
X125919160Y-126774819D01*
X93252494Y-107164875D02*
X92776304Y-107164875D01*
X92776304Y-107164875D02*
X92776304Y-106164875D01*
X93585828Y-107164875D02*
X93585828Y-106164875D01*
X93585828Y-106164875D02*
X93919161Y-106879160D01*
X93919161Y-106879160D02*
X94252494Y-106164875D01*
X94252494Y-106164875D02*
X94252494Y-107164875D01*
X95300113Y-107164875D02*
X94966780Y-106688684D01*
X94728685Y-107164875D02*
X94728685Y-106164875D01*
X94728685Y-106164875D02*
X95109637Y-106164875D01*
X95109637Y-106164875D02*
X95204875Y-106212494D01*
X95204875Y-106212494D02*
X95252494Y-106260113D01*
X95252494Y-106260113D02*
X95300113Y-106355351D01*
X95300113Y-106355351D02*
X95300113Y-106498208D01*
X95300113Y-106498208D02*
X95252494Y-106593446D01*
X95252494Y-106593446D02*
X95204875Y-106641065D01*
X95204875Y-106641065D02*
X95109637Y-106688684D01*
X95109637Y-106688684D02*
X94728685Y-106688684D01*
X96204875Y-106164875D02*
X95728685Y-106164875D01*
X95728685Y-106164875D02*
X95681066Y-106641065D01*
X95681066Y-106641065D02*
X95728685Y-106593446D01*
X95728685Y-106593446D02*
X95823923Y-106545827D01*
X95823923Y-106545827D02*
X96062018Y-106545827D01*
X96062018Y-106545827D02*
X96157256Y-106593446D01*
X96157256Y-106593446D02*
X96204875Y-106641065D01*
X96204875Y-106641065D02*
X96252494Y-106736303D01*
X96252494Y-106736303D02*
X96252494Y-106974398D01*
X96252494Y-106974398D02*
X96204875Y-107069636D01*
X96204875Y-107069636D02*
X96157256Y-107117256D01*
X96157256Y-107117256D02*
X96062018Y-107164875D01*
X96062018Y-107164875D02*
X95823923Y-107164875D01*
X95823923Y-107164875D02*
X95728685Y-107117256D01*
X95728685Y-107117256D02*
X95681066Y-107069636D01*
X97204875Y-107164875D02*
X96633447Y-107164875D01*
X96919161Y-107164875D02*
X96919161Y-106164875D01*
X96919161Y-106164875D02*
X96823923Y-106307732D01*
X96823923Y-106307732D02*
X96728685Y-106402970D01*
X96728685Y-106402970D02*
X96633447Y-106450589D01*
X98062018Y-106498208D02*
X98062018Y-107164875D01*
X97823923Y-106117256D02*
X97585828Y-106831541D01*
X97585828Y-106831541D02*
X98204875Y-106831541D01*
X98490590Y-106164875D02*
X99109637Y-106164875D01*
X99109637Y-106164875D02*
X98776304Y-106545827D01*
X98776304Y-106545827D02*
X98919161Y-106545827D01*
X98919161Y-106545827D02*
X99014399Y-106593446D01*
X99014399Y-106593446D02*
X99062018Y-106641065D01*
X99062018Y-106641065D02*
X99109637Y-106736303D01*
X99109637Y-106736303D02*
X99109637Y-106974398D01*
X99109637Y-106974398D02*
X99062018Y-107069636D01*
X99062018Y-107069636D02*
X99014399Y-107117256D01*
X99014399Y-107117256D02*
X98919161Y-107164875D01*
X98919161Y-107164875D02*
X98633447Y-107164875D01*
X98633447Y-107164875D02*
X98538209Y-107117256D01*
X98538209Y-107117256D02*
X98490590Y-107069636D01*
X99728685Y-106164875D02*
X99823923Y-106164875D01*
X99823923Y-106164875D02*
X99919161Y-106212494D01*
X99919161Y-106212494D02*
X99966780Y-106260113D01*
X99966780Y-106260113D02*
X100014399Y-106355351D01*
X100014399Y-106355351D02*
X100062018Y-106545827D01*
X100062018Y-106545827D02*
X100062018Y-106783922D01*
X100062018Y-106783922D02*
X100014399Y-106974398D01*
X100014399Y-106974398D02*
X99966780Y-107069636D01*
X99966780Y-107069636D02*
X99919161Y-107117256D01*
X99919161Y-107117256D02*
X99823923Y-107164875D01*
X99823923Y-107164875D02*
X99728685Y-107164875D01*
X99728685Y-107164875D02*
X99633447Y-107117256D01*
X99633447Y-107117256D02*
X99585828Y-107069636D01*
X99585828Y-107069636D02*
X99538209Y-106974398D01*
X99538209Y-106974398D02*
X99490590Y-106783922D01*
X99490590Y-106783922D02*
X99490590Y-106545827D01*
X99490590Y-106545827D02*
X99538209Y-106355351D01*
X99538209Y-106355351D02*
X99585828Y-106260113D01*
X99585828Y-106260113D02*
X99633447Y-106212494D01*
X99633447Y-106212494D02*
X99728685Y-106164875D01*
X88966779Y-108774819D02*
X88966779Y-107774819D01*
X88966779Y-107774819D02*
X89204874Y-107774819D01*
X89204874Y-107774819D02*
X89347731Y-107822438D01*
X89347731Y-107822438D02*
X89442969Y-107917676D01*
X89442969Y-107917676D02*
X89490588Y-108012914D01*
X89490588Y-108012914D02*
X89538207Y-108203390D01*
X89538207Y-108203390D02*
X89538207Y-108346247D01*
X89538207Y-108346247D02*
X89490588Y-108536723D01*
X89490588Y-108536723D02*
X89442969Y-108631961D01*
X89442969Y-108631961D02*
X89347731Y-108727200D01*
X89347731Y-108727200D02*
X89204874Y-108774819D01*
X89204874Y-108774819D02*
X88966779Y-108774819D01*
X90538207Y-108679580D02*
X90490588Y-108727200D01*
X90490588Y-108727200D02*
X90347731Y-108774819D01*
X90347731Y-108774819D02*
X90252493Y-108774819D01*
X90252493Y-108774819D02*
X90109636Y-108727200D01*
X90109636Y-108727200D02*
X90014398Y-108631961D01*
X90014398Y-108631961D02*
X89966779Y-108536723D01*
X89966779Y-108536723D02*
X89919160Y-108346247D01*
X89919160Y-108346247D02*
X89919160Y-108203390D01*
X89919160Y-108203390D02*
X89966779Y-108012914D01*
X89966779Y-108012914D02*
X90014398Y-107917676D01*
X90014398Y-107917676D02*
X90109636Y-107822438D01*
X90109636Y-107822438D02*
X90252493Y-107774819D01*
X90252493Y-107774819D02*
X90347731Y-107774819D01*
X90347731Y-107774819D02*
X90490588Y-107822438D01*
X90490588Y-107822438D02*
X90538207Y-107870057D01*
X90966779Y-108393866D02*
X91728684Y-108393866D01*
X92204874Y-108774819D02*
X92204874Y-107774819D01*
X92204874Y-107774819D02*
X92442969Y-107774819D01*
X92442969Y-107774819D02*
X92585826Y-107822438D01*
X92585826Y-107822438D02*
X92681064Y-107917676D01*
X92681064Y-107917676D02*
X92728683Y-108012914D01*
X92728683Y-108012914D02*
X92776302Y-108203390D01*
X92776302Y-108203390D02*
X92776302Y-108346247D01*
X92776302Y-108346247D02*
X92728683Y-108536723D01*
X92728683Y-108536723D02*
X92681064Y-108631961D01*
X92681064Y-108631961D02*
X92585826Y-108727200D01*
X92585826Y-108727200D02*
X92442969Y-108774819D01*
X92442969Y-108774819D02*
X92204874Y-108774819D01*
X93776302Y-108679580D02*
X93728683Y-108727200D01*
X93728683Y-108727200D02*
X93585826Y-108774819D01*
X93585826Y-108774819D02*
X93490588Y-108774819D01*
X93490588Y-108774819D02*
X93347731Y-108727200D01*
X93347731Y-108727200D02*
X93252493Y-108631961D01*
X93252493Y-108631961D02*
X93204874Y-108536723D01*
X93204874Y-108536723D02*
X93157255Y-108346247D01*
X93157255Y-108346247D02*
X93157255Y-108203390D01*
X93157255Y-108203390D02*
X93204874Y-108012914D01*
X93204874Y-108012914D02*
X93252493Y-107917676D01*
X93252493Y-107917676D02*
X93347731Y-107822438D01*
X93347731Y-107822438D02*
X93490588Y-107774819D01*
X93490588Y-107774819D02*
X93585826Y-107774819D01*
X93585826Y-107774819D02*
X93728683Y-107822438D01*
X93728683Y-107822438D02*
X93776302Y-107870057D01*
X95300112Y-108251009D02*
X95442969Y-108298628D01*
X95442969Y-108298628D02*
X95490588Y-108346247D01*
X95490588Y-108346247D02*
X95538207Y-108441485D01*
X95538207Y-108441485D02*
X95538207Y-108584342D01*
X95538207Y-108584342D02*
X95490588Y-108679580D01*
X95490588Y-108679580D02*
X95442969Y-108727200D01*
X95442969Y-108727200D02*
X95347731Y-108774819D01*
X95347731Y-108774819D02*
X94966779Y-108774819D01*
X94966779Y-108774819D02*
X94966779Y-107774819D01*
X94966779Y-107774819D02*
X95300112Y-107774819D01*
X95300112Y-107774819D02*
X95395350Y-107822438D01*
X95395350Y-107822438D02*
X95442969Y-107870057D01*
X95442969Y-107870057D02*
X95490588Y-107965295D01*
X95490588Y-107965295D02*
X95490588Y-108060533D01*
X95490588Y-108060533D02*
X95442969Y-108155771D01*
X95442969Y-108155771D02*
X95395350Y-108203390D01*
X95395350Y-108203390D02*
X95300112Y-108251009D01*
X95300112Y-108251009D02*
X94966779Y-108251009D01*
X96395350Y-108108152D02*
X96395350Y-108774819D01*
X95966779Y-108108152D02*
X95966779Y-108631961D01*
X95966779Y-108631961D02*
X96014398Y-108727200D01*
X96014398Y-108727200D02*
X96109636Y-108774819D01*
X96109636Y-108774819D02*
X96252493Y-108774819D01*
X96252493Y-108774819D02*
X96347731Y-108727200D01*
X96347731Y-108727200D02*
X96395350Y-108679580D01*
X97300112Y-108727200D02*
X97204874Y-108774819D01*
X97204874Y-108774819D02*
X97014398Y-108774819D01*
X97014398Y-108774819D02*
X96919160Y-108727200D01*
X96919160Y-108727200D02*
X96871541Y-108679580D01*
X96871541Y-108679580D02*
X96823922Y-108584342D01*
X96823922Y-108584342D02*
X96823922Y-108298628D01*
X96823922Y-108298628D02*
X96871541Y-108203390D01*
X96871541Y-108203390D02*
X96919160Y-108155771D01*
X96919160Y-108155771D02*
X97014398Y-108108152D01*
X97014398Y-108108152D02*
X97204874Y-108108152D01*
X97204874Y-108108152D02*
X97300112Y-108155771D01*
X97728684Y-108774819D02*
X97728684Y-107774819D01*
X97823922Y-108393866D02*
X98109636Y-108774819D01*
X98109636Y-108108152D02*
X97728684Y-108489104D01*
X99871541Y-108679580D02*
X99823922Y-108727200D01*
X99823922Y-108727200D02*
X99681065Y-108774819D01*
X99681065Y-108774819D02*
X99585827Y-108774819D01*
X99585827Y-108774819D02*
X99442970Y-108727200D01*
X99442970Y-108727200D02*
X99347732Y-108631961D01*
X99347732Y-108631961D02*
X99300113Y-108536723D01*
X99300113Y-108536723D02*
X99252494Y-108346247D01*
X99252494Y-108346247D02*
X99252494Y-108203390D01*
X99252494Y-108203390D02*
X99300113Y-108012914D01*
X99300113Y-108012914D02*
X99347732Y-107917676D01*
X99347732Y-107917676D02*
X99442970Y-107822438D01*
X99442970Y-107822438D02*
X99585827Y-107774819D01*
X99585827Y-107774819D02*
X99681065Y-107774819D01*
X99681065Y-107774819D02*
X99823922Y-107822438D01*
X99823922Y-107822438D02*
X99871541Y-107870057D01*
X100442970Y-108774819D02*
X100347732Y-108727200D01*
X100347732Y-108727200D02*
X100300113Y-108679580D01*
X100300113Y-108679580D02*
X100252494Y-108584342D01*
X100252494Y-108584342D02*
X100252494Y-108298628D01*
X100252494Y-108298628D02*
X100300113Y-108203390D01*
X100300113Y-108203390D02*
X100347732Y-108155771D01*
X100347732Y-108155771D02*
X100442970Y-108108152D01*
X100442970Y-108108152D02*
X100585827Y-108108152D01*
X100585827Y-108108152D02*
X100681065Y-108155771D01*
X100681065Y-108155771D02*
X100728684Y-108203390D01*
X100728684Y-108203390D02*
X100776303Y-108298628D01*
X100776303Y-108298628D02*
X100776303Y-108584342D01*
X100776303Y-108584342D02*
X100728684Y-108679580D01*
X100728684Y-108679580D02*
X100681065Y-108727200D01*
X100681065Y-108727200D02*
X100585827Y-108774819D01*
X100585827Y-108774819D02*
X100442970Y-108774819D01*
X101204875Y-108108152D02*
X101204875Y-108774819D01*
X101204875Y-108203390D02*
X101252494Y-108155771D01*
X101252494Y-108155771D02*
X101347732Y-108108152D01*
X101347732Y-108108152D02*
X101490589Y-108108152D01*
X101490589Y-108108152D02*
X101585827Y-108155771D01*
X101585827Y-108155771D02*
X101633446Y-108251009D01*
X101633446Y-108251009D02*
X101633446Y-108774819D01*
X102014399Y-108108152D02*
X102252494Y-108774819D01*
X102252494Y-108774819D02*
X102490589Y-108108152D01*
X103252494Y-108727200D02*
X103157256Y-108774819D01*
X103157256Y-108774819D02*
X102966780Y-108774819D01*
X102966780Y-108774819D02*
X102871542Y-108727200D01*
X102871542Y-108727200D02*
X102823923Y-108631961D01*
X102823923Y-108631961D02*
X102823923Y-108251009D01*
X102823923Y-108251009D02*
X102871542Y-108155771D01*
X102871542Y-108155771D02*
X102966780Y-108108152D01*
X102966780Y-108108152D02*
X103157256Y-108108152D01*
X103157256Y-108108152D02*
X103252494Y-108155771D01*
X103252494Y-108155771D02*
X103300113Y-108251009D01*
X103300113Y-108251009D02*
X103300113Y-108346247D01*
X103300113Y-108346247D02*
X102823923Y-108441485D01*
X103728685Y-108774819D02*
X103728685Y-108108152D01*
X103728685Y-108298628D02*
X103776304Y-108203390D01*
X103776304Y-108203390D02*
X103823923Y-108155771D01*
X103823923Y-108155771D02*
X103919161Y-108108152D01*
X103919161Y-108108152D02*
X104014399Y-108108152D01*
X104204876Y-108108152D02*
X104585828Y-108108152D01*
X104347733Y-107774819D02*
X104347733Y-108631961D01*
X104347733Y-108631961D02*
X104395352Y-108727200D01*
X104395352Y-108727200D02*
X104490590Y-108774819D01*
X104490590Y-108774819D02*
X104585828Y-108774819D01*
X105300114Y-108727200D02*
X105204876Y-108774819D01*
X105204876Y-108774819D02*
X105014400Y-108774819D01*
X105014400Y-108774819D02*
X104919162Y-108727200D01*
X104919162Y-108727200D02*
X104871543Y-108631961D01*
X104871543Y-108631961D02*
X104871543Y-108251009D01*
X104871543Y-108251009D02*
X104919162Y-108155771D01*
X104919162Y-108155771D02*
X105014400Y-108108152D01*
X105014400Y-108108152D02*
X105204876Y-108108152D01*
X105204876Y-108108152D02*
X105300114Y-108155771D01*
X105300114Y-108155771D02*
X105347733Y-108251009D01*
X105347733Y-108251009D02*
X105347733Y-108346247D01*
X105347733Y-108346247D02*
X104871543Y-108441485D01*
X105776305Y-108774819D02*
X105776305Y-108108152D01*
X105776305Y-108298628D02*
X105823924Y-108203390D01*
X105823924Y-108203390D02*
X105871543Y-108155771D01*
X105871543Y-108155771D02*
X105966781Y-108108152D01*
X105966781Y-108108152D02*
X106062019Y-108108152D01*
X98868095Y-113359819D02*
X98868095Y-114169342D01*
X98868095Y-114169342D02*
X98915714Y-114264580D01*
X98915714Y-114264580D02*
X98963333Y-114312200D01*
X98963333Y-114312200D02*
X99058571Y-114359819D01*
X99058571Y-114359819D02*
X99249047Y-114359819D01*
X99249047Y-114359819D02*
X99344285Y-114312200D01*
X99344285Y-114312200D02*
X99391904Y-114264580D01*
X99391904Y-114264580D02*
X99439523Y-114169342D01*
X99439523Y-114169342D02*
X99439523Y-113359819D01*
X100439523Y-114359819D02*
X99868095Y-114359819D01*
X100153809Y-114359819D02*
X100153809Y-113359819D01*
X100153809Y-113359819D02*
X100058571Y-113502676D01*
X100058571Y-113502676D02*
X99963333Y-113597914D01*
X99963333Y-113597914D02*
X99868095Y-113645533D01*
D11*
X100469048Y-122479318D02*
X100045714Y-121874556D01*
X99743333Y-122479318D02*
X99743333Y-121209318D01*
X99743333Y-121209318D02*
X100227143Y-121209318D01*
X100227143Y-121209318D02*
X100348095Y-121269794D01*
X100348095Y-121269794D02*
X100408572Y-121330270D01*
X100408572Y-121330270D02*
X100469048Y-121451222D01*
X100469048Y-121451222D02*
X100469048Y-121632651D01*
X100469048Y-121632651D02*
X100408572Y-121753603D01*
X100408572Y-121753603D02*
X100348095Y-121814080D01*
X100348095Y-121814080D02*
X100227143Y-121874556D01*
X100227143Y-121874556D02*
X99743333Y-121874556D01*
X100831905Y-121209318D02*
X101255238Y-122479318D01*
X101255238Y-122479318D02*
X101678572Y-121209318D01*
X102767143Y-122479318D02*
X102041428Y-122479318D01*
X102404285Y-122479318D02*
X102404285Y-121209318D01*
X102404285Y-121209318D02*
X102283333Y-121390746D01*
X102283333Y-121390746D02*
X102162381Y-121511699D01*
X102162381Y-121511699D02*
X102041428Y-121572175D01*
D10*
X94434819Y-125571666D02*
X93958628Y-125904999D01*
X94434819Y-126143094D02*
X93434819Y-126143094D01*
X93434819Y-126143094D02*
X93434819Y-125762142D01*
X93434819Y-125762142D02*
X93482438Y-125666904D01*
X93482438Y-125666904D02*
X93530057Y-125619285D01*
X93530057Y-125619285D02*
X93625295Y-125571666D01*
X93625295Y-125571666D02*
X93768152Y-125571666D01*
X93768152Y-125571666D02*
X93863390Y-125619285D01*
X93863390Y-125619285D02*
X93911009Y-125666904D01*
X93911009Y-125666904D02*
X93958628Y-125762142D01*
X93958628Y-125762142D02*
X93958628Y-126143094D01*
X94434819Y-124619285D02*
X94434819Y-125190713D01*
X94434819Y-124904999D02*
X93434819Y-124904999D01*
X93434819Y-124904999D02*
X93577676Y-125000237D01*
X93577676Y-125000237D02*
X93672914Y-125095475D01*
X93672914Y-125095475D02*
X93720533Y-125190713D01*
X118963333Y-119859819D02*
X118487143Y-119859819D01*
X118487143Y-119859819D02*
X118487143Y-118859819D01*
X119820476Y-119859819D02*
X119249048Y-119859819D01*
X119534762Y-119859819D02*
X119534762Y-118859819D01*
X119534762Y-118859819D02*
X119439524Y-119002676D01*
X119439524Y-119002676D02*
X119344286Y-119097914D01*
X119344286Y-119097914D02*
X119249048Y-119145533D01*
D11*
X125206667Y-119709318D02*
X125206667Y-120616461D01*
X125206667Y-120616461D02*
X125146190Y-120797889D01*
X125146190Y-120797889D02*
X125025238Y-120918842D01*
X125025238Y-120918842D02*
X124843809Y-120979318D01*
X124843809Y-120979318D02*
X124722857Y-120979318D01*
X125750952Y-119830270D02*
X125811428Y-119769794D01*
X125811428Y-119769794D02*
X125932381Y-119709318D01*
X125932381Y-119709318D02*
X126234762Y-119709318D01*
X126234762Y-119709318D02*
X126355714Y-119769794D01*
X126355714Y-119769794D02*
X126416190Y-119830270D01*
X126416190Y-119830270D02*
X126476667Y-119951222D01*
X126476667Y-119951222D02*
X126476667Y-120072175D01*
X126476667Y-120072175D02*
X126416190Y-120253603D01*
X126416190Y-120253603D02*
X125690476Y-120979318D01*
X125690476Y-120979318D02*
X126476667Y-120979318D01*
X89206667Y-119709318D02*
X89206667Y-120616461D01*
X89206667Y-120616461D02*
X89146190Y-120797889D01*
X89146190Y-120797889D02*
X89025238Y-120918842D01*
X89025238Y-120918842D02*
X88843809Y-120979318D01*
X88843809Y-120979318D02*
X88722857Y-120979318D01*
X90476667Y-120979318D02*
X89750952Y-120979318D01*
X90113809Y-120979318D02*
X90113809Y-119709318D01*
X90113809Y-119709318D02*
X89992857Y-119890746D01*
X89992857Y-119890746D02*
X89871905Y-120011699D01*
X89871905Y-120011699D02*
X89750952Y-120072175D01*
D10*
X94489580Y-118571666D02*
X94537200Y-118619285D01*
X94537200Y-118619285D02*
X94584819Y-118762142D01*
X94584819Y-118762142D02*
X94584819Y-118857380D01*
X94584819Y-118857380D02*
X94537200Y-119000237D01*
X94537200Y-119000237D02*
X94441961Y-119095475D01*
X94441961Y-119095475D02*
X94346723Y-119143094D01*
X94346723Y-119143094D02*
X94156247Y-119190713D01*
X94156247Y-119190713D02*
X94013390Y-119190713D01*
X94013390Y-119190713D02*
X93822914Y-119143094D01*
X93822914Y-119143094D02*
X93727676Y-119095475D01*
X93727676Y-119095475D02*
X93632438Y-119000237D01*
X93632438Y-119000237D02*
X93584819Y-118857380D01*
X93584819Y-118857380D02*
X93584819Y-118762142D01*
X93584819Y-118762142D02*
X93632438Y-118619285D01*
X93632438Y-118619285D02*
X93680057Y-118571666D01*
X93918152Y-117714523D02*
X94584819Y-117714523D01*
X93537200Y-117952618D02*
X94251485Y-118190713D01*
X94251485Y-118190713D02*
X94251485Y-117571666D01*
X94489580Y-114571666D02*
X94537200Y-114619285D01*
X94537200Y-114619285D02*
X94584819Y-114762142D01*
X94584819Y-114762142D02*
X94584819Y-114857380D01*
X94584819Y-114857380D02*
X94537200Y-115000237D01*
X94537200Y-115000237D02*
X94441961Y-115095475D01*
X94441961Y-115095475D02*
X94346723Y-115143094D01*
X94346723Y-115143094D02*
X94156247Y-115190713D01*
X94156247Y-115190713D02*
X94013390Y-115190713D01*
X94013390Y-115190713D02*
X93822914Y-115143094D01*
X93822914Y-115143094D02*
X93727676Y-115095475D01*
X93727676Y-115095475D02*
X93632438Y-115000237D01*
X93632438Y-115000237D02*
X93584819Y-114857380D01*
X93584819Y-114857380D02*
X93584819Y-114762142D01*
X93584819Y-114762142D02*
X93632438Y-114619285D01*
X93632438Y-114619285D02*
X93680057Y-114571666D01*
X93584819Y-114238332D02*
X93584819Y-113619285D01*
X93584819Y-113619285D02*
X93965771Y-113952618D01*
X93965771Y-113952618D02*
X93965771Y-113809761D01*
X93965771Y-113809761D02*
X94013390Y-113714523D01*
X94013390Y-113714523D02*
X94061009Y-113666904D01*
X94061009Y-113666904D02*
X94156247Y-113619285D01*
X94156247Y-113619285D02*
X94394342Y-113619285D01*
X94394342Y-113619285D02*
X94489580Y-113666904D01*
X94489580Y-113666904D02*
X94537200Y-113714523D01*
X94537200Y-113714523D02*
X94584819Y-113809761D01*
X94584819Y-113809761D02*
X94584819Y-114095475D01*
X94584819Y-114095475D02*
X94537200Y-114190713D01*
X94537200Y-114190713D02*
X94489580Y-114238332D01*
X119463333Y-108764580D02*
X119415714Y-108812200D01*
X119415714Y-108812200D02*
X119272857Y-108859819D01*
X119272857Y-108859819D02*
X119177619Y-108859819D01*
X119177619Y-108859819D02*
X119034762Y-108812200D01*
X119034762Y-108812200D02*
X118939524Y-108716961D01*
X118939524Y-108716961D02*
X118891905Y-108621723D01*
X118891905Y-108621723D02*
X118844286Y-108431247D01*
X118844286Y-108431247D02*
X118844286Y-108288390D01*
X118844286Y-108288390D02*
X118891905Y-108097914D01*
X118891905Y-108097914D02*
X118939524Y-108002676D01*
X118939524Y-108002676D02*
X119034762Y-107907438D01*
X119034762Y-107907438D02*
X119177619Y-107859819D01*
X119177619Y-107859819D02*
X119272857Y-107859819D01*
X119272857Y-107859819D02*
X119415714Y-107907438D01*
X119415714Y-107907438D02*
X119463333Y-107955057D01*
X119844286Y-107955057D02*
X119891905Y-107907438D01*
X119891905Y-107907438D02*
X119987143Y-107859819D01*
X119987143Y-107859819D02*
X120225238Y-107859819D01*
X120225238Y-107859819D02*
X120320476Y-107907438D01*
X120320476Y-107907438D02*
X120368095Y-107955057D01*
X120368095Y-107955057D02*
X120415714Y-108050295D01*
X120415714Y-108050295D02*
X120415714Y-108145533D01*
X120415714Y-108145533D02*
X120368095Y-108288390D01*
X120368095Y-108288390D02*
X119796667Y-108859819D01*
X119796667Y-108859819D02*
X120415714Y-108859819D01*
X102963333Y-120264580D02*
X102915714Y-120312200D01*
X102915714Y-120312200D02*
X102772857Y-120359819D01*
X102772857Y-120359819D02*
X102677619Y-120359819D01*
X102677619Y-120359819D02*
X102534762Y-120312200D01*
X102534762Y-120312200D02*
X102439524Y-120216961D01*
X102439524Y-120216961D02*
X102391905Y-120121723D01*
X102391905Y-120121723D02*
X102344286Y-119931247D01*
X102344286Y-119931247D02*
X102344286Y-119788390D01*
X102344286Y-119788390D02*
X102391905Y-119597914D01*
X102391905Y-119597914D02*
X102439524Y-119502676D01*
X102439524Y-119502676D02*
X102534762Y-119407438D01*
X102534762Y-119407438D02*
X102677619Y-119359819D01*
X102677619Y-119359819D02*
X102772857Y-119359819D01*
X102772857Y-119359819D02*
X102915714Y-119407438D01*
X102915714Y-119407438D02*
X102963333Y-119455057D01*
X103915714Y-120359819D02*
X103344286Y-120359819D01*
X103630000Y-120359819D02*
X103630000Y-119359819D01*
X103630000Y-119359819D02*
X103534762Y-119502676D01*
X103534762Y-119502676D02*
X103439524Y-119597914D01*
X103439524Y-119597914D02*
X103344286Y-119645533D01*
D12*
X99630000Y-117965000D02*
X100430000Y-117965000D01*
X99630000Y-117965000D02*
X98830000Y-117965000D01*
X99630000Y-114845000D02*
X100430000Y-114845000D01*
X99630000Y-114845000D02*
X98830000Y-114845000D01*
X101170000Y-118245000D02*
X100690000Y-118245000D01*
X100930000Y-117915000D01*
X101170000Y-118245000D01*
G36*
X101170000Y-118245000D02*
G01*
X100690000Y-118245000D01*
X100930000Y-117915000D01*
X101170000Y-118245000D01*
G37*
D13*
X97230000Y-126405000D02*
G75*
G02*
X97230000Y-126305000I0J50000D01*
G01*
X97230000Y-126305000D02*
G75*
G02*
X97230000Y-126405000I0J-50000D01*
G01*
X97230000Y-126305000D02*
X97230000Y-126305000D01*
X97230000Y-126405000D02*
X97230000Y-126405000D01*
D14*
X97870000Y-122925000D02*
X99830000Y-122925000D01*
X97870000Y-125205000D02*
X97870000Y-122925000D01*
X104580000Y-122925000D02*
X102430000Y-122925000D01*
X104580000Y-125405000D02*
X104580000Y-122925000D01*
X97870000Y-127425000D02*
X104580000Y-127425000D01*
D12*
X96365000Y-125632064D02*
X96365000Y-125177936D01*
X94895000Y-125632064D02*
X94895000Y-125177936D01*
X107230000Y-117005000D02*
X107230000Y-118405000D01*
X107230000Y-117005000D02*
X108630000Y-117005000D01*
X107480000Y-117655000D02*
X107480000Y-120405000D01*
X107480000Y-124405000D02*
X107480000Y-127155000D01*
X107880000Y-117255000D02*
X117380000Y-117255000D01*
X117380000Y-127555000D02*
X107880000Y-127555000D01*
X117780000Y-117655000D02*
X117780000Y-120405000D01*
X117780000Y-124405000D02*
X117780000Y-127155000D01*
X107480000Y-117655000D02*
G75*
G02*
X107880000Y-117255000I399999J1D01*
G01*
X107880000Y-127555000D02*
G75*
G02*
X107480000Y-127155000I-1J399999D01*
G01*
X117380000Y-117255000D02*
G75*
G02*
X117780000Y-117655000I0J-400000D01*
G01*
X117780000Y-127155000D02*
G75*
G02*
X117380000Y-127555000I-400000J0D01*
G01*
D13*
X122380000Y-119175000D02*
X122380000Y-113635000D01*
X122380000Y-113635000D02*
X128880000Y-113635000D01*
X128880000Y-113635000D02*
X128880000Y-119175000D01*
X128880000Y-119175000D02*
X122380000Y-119175000D01*
X92880000Y-113635000D02*
X92880000Y-119175000D01*
X92880000Y-119175000D02*
X86380000Y-119175000D01*
X86380000Y-119175000D02*
X86380000Y-113635000D01*
X86380000Y-113635000D02*
X92880000Y-113635000D01*
D12*
X96365000Y-118143748D02*
X96365000Y-118666252D01*
X94895000Y-118143748D02*
X94895000Y-118666252D01*
X94895000Y-114666252D02*
X94895000Y-114143748D01*
X96365000Y-114666252D02*
X96365000Y-114143748D01*
X119480000Y-113665000D02*
X118230000Y-113665000D01*
X118855000Y-114290000D02*
X118855000Y-113040000D01*
X117990000Y-115200563D02*
X117990000Y-112415000D01*
X117990000Y-115200563D02*
X116925563Y-116265000D01*
X117990000Y-106609437D02*
X117990000Y-109395000D01*
X117990000Y-106609437D02*
X116925563Y-105545000D01*
X116925563Y-116265000D02*
X107270000Y-116265000D01*
X116925563Y-105545000D02*
X107270000Y-105545000D01*
X107270000Y-116265000D02*
X107270000Y-112415000D01*
X107270000Y-105545000D02*
X107270000Y-109395000D01*
X99868748Y-119170000D02*
X100391252Y-119170000D01*
X99868748Y-120640000D02*
X100391252Y-120640000D01*
%LPC*%
D15*
X100767500Y-117355000D03*
X100767500Y-116405000D03*
X100767500Y-115455000D03*
X98492500Y-115455000D03*
X98492500Y-116405000D03*
X98492500Y-117355000D03*
D16*
X103630000Y-126405000D03*
X101130000Y-123905000D03*
X98630000Y-126405000D03*
D17*
X95630000Y-124405000D03*
X95630000Y-126405000D03*
D18*
X108155000Y-122405000D03*
X117105000Y-122405000D03*
D19*
X125630000Y-117675000D03*
D20*
X125630000Y-115135000D03*
D19*
X89630000Y-115135000D03*
D20*
X89630000Y-117675000D03*
D21*
X95630000Y-117367500D03*
X95630000Y-119442500D03*
D22*
X95630000Y-115442500D03*
X95630000Y-113367500D03*
D23*
X116830000Y-110905000D03*
X108430000Y-110905000D03*
D24*
X99092500Y-119905000D03*
X101167500Y-119905000D03*
%LPD*%
M02*
